<?xml version="1.0" encoding="utf-8"?>
<!-- Generator: Adobe Illustrator 16.0.4, SVG Export Plug-In . SVG Version: 6.00 Build 0)  -->
<!DOCTYPE svg PUBLIC "-//W3C//DTD SVG 1.1//EN" "http://www.w3.org/Graphics/SVG/1.1/DTD/svg11.dtd">
<svg version="1.1" id="Layer_1" xmlns="http://www.w3.org/2000/svg" xmlns:xlink="http://www.w3.org/1999/xlink" x="0px" y="0px"
	 width="478px" height="478px" viewBox="0 0 478 478" style="enable-background:new 0 0 478 478;" xml:space="preserve">
<g>
	<path style="fill:#FFFFFF;" d="M238.7,468.1c126.3-0.1,229.9-100.8,230-229C468.9,111.2,365.5,9.9,239,9.9
		C110.1,9.9,9.7,114.3,9.2,238.1C8.8,362.7,109.5,467.7,238.7,468.1z"/>
	<path style="fill-rule:evenodd;clip-rule:evenodd;" d="M238.7,468.1C109.5,467.7,8.8,362.7,9.2,238.1C9.7,114.3,110.1,9.9,239,9.9
		c126.5,0,229.8,101.3,229.7,229.3C468.7,367.3,365,468.1,238.7,468.1z M157.1,369c1.9,1,3.8,1.9,5.7,2.9c1,0.8,1.9,1.7,3,2.3
		c34.8,20,71.9,25.5,110.9,16.6C357.3,372.4,408,291.4,389.9,211C370.7,125.9,281.7,74.4,198.3,99.8C137.1,118.4,93.4,174.1,91,237
		c-1.2,32.2,6.6,61.8,24,88.8C126.1,343.1,140.5,357.1,157.1,369z M85.2,101.8c0,13.8,10.8,24.7,24.5,24.7
		c14.2,0,28.3-14.2,28.2-28.6c-0.1-13.5-11.2-24.4-25-24.4C98.6,73.5,85.2,87.1,85.2,101.8z M179.7,66.2c4.7-2.2,8.9-3.8,12.8-6
		c4.7-2.6,9-5.9,9.6-11.9c1.2-11.2-7.5-19.1-18.9-15.5c-12.7,3.9-24.7,9.9-37.4,15.1c1.8,4,3.2,7.2,4.7,10.6c1.6-0.4,3-0.7,4.6-1
		c3.3,7.3,6.5,14.5,9.7,21.7c-1.4,1-2.5,1.9-3.8,2.8c1.6,3.4,3,6.6,4.7,10.2c8.8-3.9,17.2-7.7,25.8-11.5c-1.7-3.8-3.2-7-4.7-10.3
		c-1.6,0.5-3,0.8-4.6,1.3C181.3,69.8,180.6,68.2,179.7,66.2z M287.9,64.4c4.1,0.9,7.8,1.9,11.6,2.4c6.6,1,13,1.1,17.9-4.5
		c7.1-8.2,3.4-20-8.4-23.6c-12.2-3.7-24.9-5.9-37.8-8.9c-0.9,4.2-1.7,7.8-2.4,11.3c0.6-0.1,1.1-0.2,1.7-0.3c0.7,1.7,2.2,3.5,1.9,5
		c-1.1,6.5-2.8,12.9-4.2,19.4c-0.1,0.3-0.4,0.5-0.6,0.8c-1.3,0.1-2.7,0.2-4.2,0.2c-0.8,3.7-1.5,7.1-2.3,11c9.5,2,18.6,3.9,27.8,5.8
		c0.8-4.3,1.5-7.7,2.2-11c-1.8-0.7-3-1.2-4.4-1.8C286.9,68.3,287.3,66.7,287.9,64.4z M333.7,94.9c-0.1,13.9,13.9,27.5,28.5,27.6
		c13.5,0.2,25.1-11.3,25.2-24.8c0-13.8-14.7-27.8-29.1-27.7C344.8,70.1,333.7,81.3,333.7,94.9z M54.6,128.7
		c-3.6,7.7-6.9,14.7-10.2,21.7c-3.3,7.1-6.6,14.2-10.1,21.7c6.4,3,12.4,5.7,18.5,8.5c1.4-3,2.5-5.5,3.8-8.1
		c-2.5-1.3-4.8-2.5-7.4-3.9c0.6-1.5,1.2-2.9,2-4.7c7.7,3.6,14.9,6.9,21.6,10c-0.7,7.9,6.5,5.8,9.4,9.7c4.2-8.9,7.9-16.8,11.8-25.2
		c-3.7-1.7-7-3.2-9.4-4.3c-2.1,1-3.9,2.6-4.8,2.2c-6.9-2.9-13.7-6.2-20.7-9.5c1-1.8,1.8-3.1,2.5-4.4c2.8,1.1,5.1,2.1,7.7,3.2
		c1.4-3,2.6-5.5,3.8-8.2C66.7,134.3,60.9,131.6,54.6,128.7z M420.7,170.9c1.6,2.8,3,5.2,4.6,7.9c6.2-3.4,11.9-6.6,17.8-9.9
		c-7.7-13.8-15.1-27-22.5-40.3c-0.2-0.4-0.6-0.7-1.2-1.3c-5.7,3.2-11.5,6.3-17.5,9.7c1.6,2.9,2.9,5.4,4.3,8c2.8-1.4,5.2-2.6,7.8-3.9
		c0.8,1.6,1.5,2.9,2.3,4.5c-7.2,4-14.1,7.8-20.9,11.6c-3.5-3.5-5.3-3.2-12.7,2.8c4.3,7.6,8.5,15.3,13,23.2c3.6-2,6.7-3.6,9.9-5.4
		c-0.4-1.5-0.8-2.8-1.2-4.2c7.1-3.9,14-7.7,21.2-11.6c0.9,1.8,1.6,3.1,2.3,4.6C425.5,168,423.5,169.2,420.7,170.9z M384.9,364.6
		c0.4-0.2,0.7-0.5,1.1-0.7c0.1,1.1-0.2,2.4,0.4,3.3c1,1.5,2.3,3.6,3.7,3.8c1.7,0.3,4.7-0.6,5.4-1.8c1.6-3.4,3.7-6.2,6.8-8.2
		c0.3-0.2,0.2-0.8,0.5-1.7c-5,1.6-6.5-2-8.4-6.9c-1.1,3.3-1.7,5.1-2.4,7.4c-2.4-2.9-2.3-8.9-7.9-6.7c-1.8,0.7-4,3.8-3.7,5.4
		C380.7,360.7,383.3,362.5,384.9,364.6z M309.7,414.9c3.1,1.5,5.9,3,8.8,4.2c2.8,1.2,5.8,2.2,8.7,3.2c0.3-0.5,0.5-1,0.8-1.5
		c-2.6-6.1-5.2-12.2-7.9-18.5c-1.2,0.7-2.6,1.2-2.5,1.4c1,3.9,2.2,7.8,3.4,11.8c-6.4-1.2-11.1-7-18.7-6.3c3,7,5.5,13,8.2,19.3
		c1.1-0.5,2.4-1,2.4-1.1C312,423.3,310.9,419.3,309.7,414.9z M93,373.3c5.9,0,10.4-4.6,10.3-10.4c-0.1-5.9-5.4-11.2-11.1-11.2
		c-5.5,0-10.6,5-10.7,10.4C81.4,367.8,87,373.3,93,373.3z M54,300.4c2-6.7,8.1-10.7,8.4-18.4c-6.5,1.9-12.2,3.6-17.8,5.4
		c-0.8,0.3-1.2,1.7-1.8,2.7c1.1,0.3,2.2,1,3.2,0.8c3.1-0.7,6.2-1.7,9.6-2.7c-2,6.6-8.3,10.5-8.3,18c1.9-0.4,3-0.6,4-0.9
		c4.6-1.4,9.3-2.7,13.9-4.2c0.8-0.3,1.2-1.5,1.8-2.4c-1-0.5-2.1-1.5-3-1.3C60.8,298.2,57.8,299.3,54,300.4z M408.5,311.5
		c-0.1,5.7,4.5,10.5,10.2,10.7c5.9,0.2,11.2-5.3,11.1-11.6c-0.1-5.6-4.9-10.5-10.5-10.5C413.6,300,408.6,305.4,408.5,311.5z
		 M149.3,419.7c6.2,2.7,11.8,7,18.3,2.3c3.4-2.4,4.9-6.1,3.9-10.2c-1.8-7.1-8.3-8-13.9-10.6C154.7,407.5,152.1,413.3,149.3,419.7z
		 M231.1,429.3c-0.1-5.8-4.8-10.3-11-10.4c-6.2-0.1-11,4.8-10.8,11c0.2,5.9,4.9,10.1,11.3,10C226.7,439.9,231.2,435.4,231.1,429.3z
		 M50.8,313.2c2.3,6.1,3.8,13,11.3,13.8c3.1,0.3,7.5-1.7,9.5-4.2c5.1-6.1,0-11.7-2.3-17.9C62.9,307.7,57,310.4,50.8,313.2z
		 M184,432.9c6.2,1.7,12,4.6,17.6-0.2c3.6-3.1,4.4-7.3,2.6-11.4c-2.9-6.8-9.6-6.4-15.6-7.9C187,420.1,185.6,426.3,184,432.9z
		 M111.3,366.3c-5.6,6-10.1,10.8-14.7,15.8c1.2,1,2.1,1.7,4.2,3.4c1.5-2.4,2.8-4.5,4.2-6.7c4.1,4.4-2.6,10.5,3.7,14.1
		c0.3-1.2,0.6-2,0.7-2.7c0.8-3.9,0.3-7.9,5.6-9.8c3.2-1.1,3.1-5,1-7.9C114.6,370.5,113.2,368.8,111.3,366.3z M126.4,393.1
		c0,2.5-0.1,3.6,0,4.8c0.1,0.9,0.3,1.8,0.4,2.7c-1-0.2-2.2,0-3.1-0.5c-3.5-1.9-4.6-6.3-2.6-9.6c2.1-3.4,6.4-4.3,9.7-1.8
		c1.8,1.4,3.2,3.5,5.9,6.4c0-2.6,0.6-4.8-0.1-5.6c-2.2-2.2-4.7-4.6-7.5-5.7c-5-1.8-10.7,1.5-12.6,6.4c-2,5.5,0.8,11,7.2,14
		c4.4,2.1,5.1,1.7,9.5-6C131.4,397,129.7,395.6,126.4,393.1z M270.5,427.5c-0.3,0.5-0.6,1-0.8,1.5c1.6,1.2,3.2,2.4,4.8,3.6
		c0.1,0.5,0.1,1,0.2,1.4c-2.5,0.1-5.6,1.2-7.4,0.1c-2-1.2-4.1-4.6-3.8-6.8c0.3-2.1,3.2-4.6,5.5-5.5c2.1-0.9,4.9,0,7.4,0.2
		c0.2-0.3,0.5-0.6,0.7-1c-1.2-1.1-2.5-3-3.7-3c-3.3,0.1-6.8,0.3-9.7,1.7c-4.7,2.3-6.1,8.8-3.6,13.5c2.5,4.9,8.5,6.5,14.8,4.5
		c6.2-2,3.1-6.3,2.8-9.9c0-0.3-0.4-0.5-0.7-0.9C274.9,427.1,272.7,427.3,270.5,427.5z M45,253.3c-2.5,0.2-4.3,0.1-6,0.5
		c-0.8,0.2-1.4,1.3-2.1,2c0.8,0.6,1.5,1.7,2.3,1.7c5.3-0.1,10.7-0.3,16-0.7c0.7-0.1,1.4-1.3,2.1-1.9c-0.8-0.7-1.6-1.9-2.5-2
		c-1.8-0.2-3.7,0.1-6,0.2c0-3.3,0-6.2,0-9c7.7-1.6,7.7-1.6,6.8-4.8c-5.6,0.3-11.3,0.5-16.9,0.9c-0.9,0.1-1.8,1.2-2.7,1.9
		c1,0.7,1.9,1.7,3,1.9c1.7,0.3,3.4,0.1,5.5,0.1C44.6,247.3,44.8,250.1,45,253.3z M303.2,430.5c-1.5-5.6-2.9-11.2-4.6-16.7
		c-0.3-1-2.3-1.4-3.5-2.1c-0.3,0.4-0.5,0.8-0.8,1.2c0.6,2.3,1.1,4.6,1.8,7.3c-3.1,0.8-6,1.6-8.9,2.4c-0.9-2.7-1.7-5-3-9
		c-1.3,2.2-2.7,3.5-2.5,4.5c1.1,5,2.5,10,4.2,14.9c0.3,1,2.3,1.5,4.5,2.8c-0.9-4.3-1.4-6.7-2-9.4c3.1-0.8,5.9-1.5,8.5-2.2
		C299.9,431.4,299.9,431.4,303.2,430.5z M38.5,263.1c-0.4,0.3-0.7,0.6-1.1,0.9c1,1.1,1.7,2.7,2.9,3.2c5.6,2.5,6.3,6.5,2,10.5
		c-1,1-1.3,2.8-1.9,4.2c0.4,0.2,0.8,0.5,1.3,0.7c5.3-3.6,10.7-7.1,16-10.8c0.8-0.5,1.7-2.1,1.5-2.6c-0.5-0.9-1.7-1.8-2.8-2.1
		C50.4,265.8,44.4,264.5,38.5,263.1z M327.8,398.7c-0.6-0.1-1.2-0.1-1.8-0.2c-0.2,1.3-1,2.8-0.5,3.8c1.5,3.2,3.4,6.2,5.4,9.1
		c2.6,3.9,7.1,4.7,11.4,2.2c4.5-2.6,6.1-6.5,3.9-10.9c-1.9-3.9-4.3-7.5-6.4-11.2c-0.6,0-1.2,0.1-1.8,0.1c-0.1,1.5-0.6,3.2-0.1,4.5
		c1.1,2.6,2.8,5,4.3,7.5c1.6,2.7,1.2,5-1.5,6.6c-2.8,1.7-5.2,1.3-6.9-1.7C331.8,405.3,329.8,402,327.8,398.7z M239.6,420.8
		c-0.4-0.3-0.9-0.5-1.3-0.8c-0.8,1.1-2.2,2.1-2.3,3.3c-0.2,3-0.1,6.1,0.2,9.2c0.5,5.8,3.6,8.6,9,8.5c5.4-0.1,8.7-3.3,8.9-8.8
		c0.1-3.2-0.2-6.4-0.6-9.6c-0.1-0.8-1.1-1.5-1.7-2.3c-0.7,0.8-2,1.6-2,2.5c-0.1,3,0.3,6.1,0.3,9.2c0,2.9-1.2,4.9-4.5,5.1
		c-3.5,0.2-5.1-1.4-5.4-4.7C240,428.5,239.8,424.7,239.6,420.8z M416.8,327.9c-0.5,4.9-1.3,9.5-6.5,10.5c-2,0.4-5.5-1-6.6-2.7
		c-3.7-5.5,1.1-9,4.6-12.7c-5.2-3.2-6.7,1.2-8.3,3.8c-3.5,5.5-1.4,12.1,4.1,14.9c5.6,2.8,11.6,0.7,14.4-5.6
		C419.7,333.5,422.9,330,416.8,327.9z M143.2,393.4c-3.3,5.8-6.5,11.4-9.8,17.1c1.1,0.8,1.8,1.4,2.6,1.9c1.9,1.2,3.9,2.4,5.9,3.3
		c0.8,0.3,1.9-0.1,2.9-0.2c-0.4-1-0.4-2.3-1.2-2.9c-1.4-1.2-3.2-2.1-5.1-3.3c1-1.4,1.8-2.4,2.6-3.5c6.6,3.2,6.6,3.2,7.8,0.1
		c-1.9-1.2-3.7-2.4-5.9-3.8c0.8-1.3,1.5-2.4,2.2-3.7c2.4,1.3,4.6,2.4,6.7,3.6C153.9,398.5,153.1,397.6,143.2,393.4z M438.7,260.4
		c-0.7,0.3-1.3,0.6-2,0.9c-0.7-1.4-1.5-2.7-2-4.1c-0.6-1.5-1.1-3.1-1.6-4.6c-0.7,1.3-1.9,2.6-2.1,4c-0.3,3.4-1.9,3.6-4.6,2.4
		c0-1.8,0.1-3.5-0.1-5.3c-0.1-0.8-0.7-1.5-1.2-2.2c-0.7,0.6-2,1.1-2.1,1.9c-0.6,3.1-0.8,6.2-1.2,9.6c6.4,0.8,12.1,1.6,17.8,2.1
		c0.9,0.1,2.6-1.3,2.8-2.2c0.6-2.7,0.7-5.4,0.7-8.2c0-0.6-0.9-1.7-1.5-1.8c-0.6-0.1-1.7,0.8-1.8,1.5
		C439.3,256.3,439,258.4,438.7,260.4z M440,242.8c-1.5-0.1-2.9-0.1-4.1-0.2c-0.4-7.4-0.4-7.4-3.7-6.9c-0.7,7.4-0.7,7.4-4.8,6.4
		c-0.1-2.3-0.2-4.7-0.4-7.1c-4,0.7-4.6,3.5-3,11.8c6.4,0,12.9,0,20,0c0-3.4,0.1-6.4-0.1-9.4c-0.1-0.8-1-1.6-1.6-2.4
		c-0.7,0.7-1.7,1.3-1.9,2.2C440,238.6,440.1,240.3,440,242.8z M366.7,389.2c2.9,0.7,5.4,2.1,6.4,1.4c2.2-1.5,4.6-3.9,5-6.2
		c0.3-1.5-2.4-4.2-4.3-5.4c-1.4-0.8-3.7,0.2-5.7,0.1c-1.4-0.1-2.7-0.7-4-1c1.1-1,2-2.2,3.2-3.1c0.5-0.4,1.4-0.3,2.4-0.5
		c-1.4-3.2-3.7-4.2-5.7-2.1c-1.8,1.8-3.6,4.8-3.4,7.1c0.2,3.2,3.4,4.3,6.7,3.9c2.4-0.2,4.8-0.3,7.1-0.4c0.2,0.7,0.4,1.4,0.6,2.1
		C372.9,386.2,370.7,387.3,366.7,389.2z M427.3,292.3c0.7-2.6,1.2-4.6,1.9-7.3c-5.9-1.3-3.6,5.1-6.4,6.2c-5.8-1.4-0.3-5.6-1.8-8
		c-3.3-0.4-4.7,2-5.4,10c5.6,1.7,11.2,3.5,16.9,4.9c0.9,0.2,2.2-1.3,4.4-2.6C432.7,294.1,430.2,293.2,427.3,292.3z M426.2,275.5
		c-4.2-0.1-1.8-3.3-2-5.5c-0.1-1-1-1.9-1.5-2.8c-0.7,0.7-1.7,1.3-2,2.1c-0.6,2-1.3,4.1-1.3,6.1c0,1.2,1.2,3,2.2,3.3
		c4.8,1.3,9.7,2.3,14.6,2.9c1.1,0.1,2.5-1.5,3.7-2.3c-0.3-0.4-0.6-0.7-0.9-1.1c-2.6-0.6-5.2-1.2-7-1.6c-0.6-3.1-1-5.3-1.4-7.6
		C429.4,270.9,428,272.9,426.2,275.5z M84.8,335.9c-4.8,3.2-9.6,6.3-14.3,9.7c-0.8,0.5-0.9,2-1.3,3c1.2,0.1,2.6,0.5,3.6,0.1
		c1.7-0.7,3.2-1.9,5-3c1.6,2,3,3.8,4.6,5.8c4.5-3.5-0.9-5.3-0.8-7.8c2.3-2.1,2.3-2.1,7.2,3C91.8,344.4,91.3,343,84.8,335.9z
		 M357.7,382.5c-0.1-0.5-0.2-1-0.3-1.6c-5.6-1.4-8.3,4.5-12.5,6.6c-1.1,0.6-1.4,2.6-2.1,3.9c0.5,0.3,0.9,0.5,1.4,0.8
		c1.7-1,3.5-2.1,5.4-3.2c3.4,4.5,6.6,8.7,9.7,12.8c3.3-1,3.2-2.6,1.5-4.7c-2.7-3.4-5.2-6.9-7.9-10.6
		C354.8,385,356.3,383.7,357.7,382.5z M73.2,336.9c-2.2-1.9-4.1-3.6-6-5.3c-0.1,1.3-0.8,2.9-0.2,3.9C68,337.3,68.5,341.1,73.2,336.9
		z"/>
	<path style="fill-rule:evenodd;clip-rule:evenodd;fill:#A9C7CF;" d="M157.1,369c-16.6-11.9-31-25.9-42.1-43.1
		c-17.4-27.1-25.2-56.6-24-88.8c2.4-62.9,46.1-118.6,107.3-137.2c83.4-25.4,172.4,26.1,191.6,111.2
		c18.2,80.4-32.6,161.4-113.1,179.8c-39,8.9-76.1,3.4-110.9-16.6c-1.1-0.6-2-1.5-3-2.3c4.3,1.9,8.5,3.9,12.8,5.7
		c32,13,65.1,15.7,99,9.4c16.8-3.1,32.8-8.6,47.4-17.6c1.6-1,2.7-2.6,4.1-4c-0.3-0.7-0.6-1.3-0.9-2c-12.3,0-24.5,0.1-36.8,0
		c-6.9,0-7.7-1-7.1-8c0.1-1.3,0.6-2.5,0.6-3.8c0-3.9,0.1-7.9-0.5-11.7c-0.5-3.3-0.1-5.3,3.5-6c4.9-1,9.8-2,14.6-3.5
		c9.2-2.9,18.6-5.5,27.3-9.5c6.9-3.1,6.4-7.9-0.2-11.5c-1.2-0.6-2.8-0.4-4.2-0.7c-6-1.3-12-2.7-19.3-4.3c5.4-5,8.6-9.4,6.2-15.2
		c-3-7.2-1.9-14,0.1-21.3c1.2-4.5,2.4-10.2,0.8-14.2c-4.4-11.1-4.2-23.2-9.2-34.4c-5.3-11.9-7.2-25.1-19.4-32.5c1.4-1.8,3-3,3.5-4.6
		c2.6-9.1,8.6-15.8,15.4-21.9c3.8-3.5,3.6-5.5-0.1-9.1c-1.4-1.3-2.4-3.7-2.4-5.5c0.1-5.6-3.2-10.9-8.6-12.6c-1-0.3-2.1-0.8-3-1.4
		c-7.1-5.1-21.8-4.5-28.8,0.8c-12.7,9.7-16.9,22.2-13.3,37.3c-3.6,2.7-7,5.2-10.7,7.9c-0.4-1-1.3-1.9-1.1-2.6
		c1.5-5.3-1.6-8.9-4.6-12.6c-1.5-1.8-3-4-3.4-6.2c-1-6.7-1.7-13.5-1.7-20.3c0-2.5,1.4-5.7,3.2-7.4c5.9-5.6,8.1-12.8,4.6-20.1
		c-0.9-1.8-3.9-3.8-5.8-3.7c-4.7,0.4-9.5,0.9-13.4,4.4c-3.3,3-7.3,5.2-10.8,8c-1.3,1-2.8,2.6-3.1,4.2c-2,10.5,1.5,15,11.9,15.3
		c0.3,0,0.5,0.3,1.2,0.8c0.4,7.9,0.9,16.1,1.2,24.3c0,1.3-0.6,2.8-1.5,3.8c-5.3,5.6-10.7,11.2-16.2,16.7c-1,1-2.3,1.7-3.6,2.3
		c-7.5,3.4-15.2,6.5-22.6,10c-2.8,1.4-5.6,3.3-7.8,5.6c-3.4,3.6-6.2,7.8-9.2,11.7c-0.9,1.2-1.8,2.4-2.3,3.7
		c-2.2,5.3-1.8,10.5,1.4,15.2c2.9,4.3,7.4,3.5,11.5,2.5c7-1.6,14-3.6,21.2-5.5c0.5,0.8,1.1,1.8,1.7,2.7c5.2,8.1,10,16.5,15.7,24.2
		c2.7,3.6,2.5,5.7,0.5,9.2c-2.2,3.8-5.5,8.4-4.9,12.2c0.8,5.6-1.9,9.7-2.9,14.4c-1.5,7.2-8.4,4.3-12.7,6.3c-0.9,0.4-2,0.6-2.6,1.2
		c-0.9,1.1-2,2.6-1.8,3.7c1.6,8.2,3.9,16.3,11.8,20.7c4.5,2.5,4.2,5.9,3.1,9.4c-1.9,5.9-2.9,11.4,1.3,16.7c0.8,1,0.6,2.8,0.9,4.3
		c-3.3,0.6-6.6,0.2-5.4,4.7c1.4,5.2,0.9,5.6-4.6,5.7c-7.4,0.1-14.9,0-22.3,0C156.4,363.5,155.1,365.2,157.1,369z"/>
	<path style="fill-rule:evenodd;clip-rule:evenodd;" d="M157.1,369c-1.9-3.7-0.6-5.5,3.4-5.5c7.4,0,14.9,0,22.3,0
		c5.5,0,6-0.5,4.6-5.7c-1.2-4.5,2.2-4.1,5.4-4.7c-0.3-1.5-0.1-3.3-0.9-4.3c-4.2-5.4-3.2-10.9-1.3-16.7c1.1-3.5,1.4-6.9-3.1-9.4
		c-7.9-4.4-10.2-12.5-11.8-20.7c-0.2-1.1,1-2.6,1.8-3.7c0.5-0.7,1.7-0.8,2.6-1.2c4.3-2,11.2,0.9,12.7-6.3c1-4.8,3.7-8.9,2.9-14.4
		c-0.5-3.8,2.7-8.3,4.9-12.2c2.1-3.5,2.2-5.7-0.5-9.2c-5.8-7.7-10.6-16.1-15.7-24.2c-0.6-0.9-1.2-1.9-1.7-2.7
		c-7.3,1.9-14.2,3.9-21.2,5.5c-4.1,1-8.6,1.7-11.5-2.5c-3.2-4.7-3.5-9.9-1.4-15.2c0.5-1.3,1.4-2.5,2.3-3.7c3-4,5.8-8.1,9.2-11.7
		c2.1-2.3,4.9-4.2,7.8-5.6c7.4-3.6,15.1-6.7,22.6-10c1.3-0.6,2.7-1.3,3.6-2.3c5.5-5.5,10.9-11,16.2-16.7c0.9-0.9,1.6-2.5,1.5-3.8
		c-0.3-8.2-0.8-16.4-1.2-24.3c-0.7-0.4-0.9-0.8-1.2-0.8c-10.3-0.3-13.9-4.8-11.9-15.3c0.3-1.5,1.7-3.1,3.1-4.2c3.5-2.8,7.5-5,10.8-8
		c3.9-3.6,8.8-4,13.4-4.4c1.9-0.2,5,1.9,5.8,3.7c3.5,7.3,1.3,14.5-4.6,20.1c-1.8,1.7-3.2,4.9-3.2,7.4c0.1,6.8,0.8,13.6,1.7,20.3
		c0.3,2.2,1.9,4.4,3.4,6.2c3,3.7,6,7.3,4.6,12.6c-0.2,0.7,0.7,1.6,1.1,2.6c3.7-2.7,7.1-5.3,10.7-7.9c-3.6-15,0.6-27.6,13.3-37.3
		c7-5.3,21.8-5.9,28.8-0.8c0.9,0.6,1.9,1.1,3,1.4c5.4,1.7,8.7,6.9,8.6,12.6c0,1.8,1,4.2,2.4,5.5c3.7,3.6,4,5.6,0.1,9.1
		c-6.8,6.2-12.8,12.8-15.4,21.9c-0.4,1.6-2.1,2.8-3.5,4.6c12.2,7.4,14.1,20.6,19.4,32.5c5,11.2,4.8,23.3,9.2,34.4
		c1.6,4,0.5,9.7-0.8,14.2c-2,7.2-3.1,14.1-0.1,21.3c2.5,5.9-0.8,10.2-6.2,15.2c7.3,1.6,13.3,3,19.3,4.3c1.4,0.3,3,0,4.2,0.7
		c6.7,3.6,7.1,8.4,0.2,11.5c-8.8,3.9-18.1,6.6-27.3,9.5c-4.8,1.5-9.7,2.4-14.6,3.5c-3.6,0.7-4,2.8-3.5,6c0.6,3.9,0.5,7.8,0.5,11.7
		c0,1.3-0.5,2.5-0.6,3.8c-0.6,7,0.2,8,7.1,8c12.3,0.1,24.5,0,36.8,0c0.3,0.7,0.6,1.3,0.9,2c-1.3,1.3-2.5,3-4.1,4
		c-14.7,8.9-30.6,14.4-47.4,17.6c-33.9,6.3-66.9,3.6-99-9.4c-4.3-1.8-8.5-3.8-12.8-5.7C160.9,370.9,159,370,157.1,369z M267.9,348.8
		c0,0.2,0,0.4,0,0.7c-1,0.4-2,0.7-3.4,1.3c3.7,6.3,8,11.3,15.3,15.1c-3.8-5.5-6.8-9.8-9.8-14.2c0.2,0,0.4,0,0.6,0
		c0-1.1,0.5-2.6,0-3.3c-0.9-1.1-2.4-1.7-3.7-2.5c0,0.6,0,1.2,0,1.8C267.2,348,267.5,348.4,267.9,348.8L267.9,348.8z M272.8,340
		c-0.6,0.2-1.1,0.3-1.7,0.5c1.4,1.3,2.7,2.6,4.1,4c0.1-0.5,0.3-1.1,0.4-1.6c-0.4-1.8-0.8-3.6-1.1-5.4c-1.5,0.6-1.7,0.9-1.8,1.2
		C272.7,339,272.8,339.5,272.8,340z M194.2,357.4c-0.7,3.4,1.5,5.6,4.8,4.8c0.5,0,0.9-0.1,1.4-0.1c-2-2.2-4-4.3-6-6.5
		C194.3,356.2,194.2,356.8,194.2,357.4z M288.9,143.7c0.2-0.4,0.8-1.2,0.7-1.3c-3.5-3.7-7.1-7.4-10.7-11.1c0,0-0.8,0.7-1.2,1
		c-0.9-0.4-1.9-0.7-2.8-1.1c0.3-0.2,0.5-0.4,0.8-0.6c6,6.4,12,12.9,18,19.3c0.1-0.1,0.2-0.2,0.3-0.3
		C292.3,147.8,290.6,145.7,288.9,143.7z M207.6,339.6c0.3-0.6,0.9-1.5,0.7-1.7c-4.5-4.8-9.1-9.4-13.7-14.1c-0.3,0.3-0.6,0.5-0.9,0.8
		c0.5,0.9,1,1.8,1.5,2.7c-0.1,1-0.6,2.4-0.2,2.9c3.7,3.7,7.6,7.2,11.4,10.8C206.8,340.5,207.2,340.1,207.6,339.6z M213.4,352.3
		c0.3-0.5,0.9-1.3,0.8-1.4c-4.9-4.8-10-9.5-15.5-14.7c0.6,1.3,0.9,2,1.1,2.7c-3,2.5-1.1,4,1,5.6c1.4,1.1,2.5,2.5,3.7,3.8
		c1.6,1.8,2.8,4,4.7,5.3C210.3,354.4,213.1,356,213.4,352.3z M243,256.5c-0.1-0.7-0.2-1.4-0.3-2.2c2.3-0.8,4.7-1.4,6.8-2.5
		c1.1-0.6,1.7-2.1,2.5-3.1c-1.1-0.6-2.2-1.7-3.4-1.8c-3.4-0.2-6.8,0.1-10.2,0c-0.9,0-1.7-1-2.6-1.5c0.7-0.8,1.2-1.8,2.1-2.3
		c0.8-0.4,1.9-0.2,2.8-0.4c5.3-1.3,10.6-2.4,15.8-4c3.3-1,5-3.8,4.1-7.2c-0.9-3.6-3.8-3.1-6.7-2.4c-2.5,0.7-12.6-6.3-12.1-8.5
		c1-4.4,0-9.2,4.5-13.2c3.7-3.3,5.7-8.8,8-13.5c0.6-1.2-0.8-3.4-1.3-5.2c-1.5,0.4-3.2,0.7-4.6,1.4c-1.6,0.7-3.8,2.9-4.4,2.5
		c-1.8-1.3-3.2-3.3-4.2-5.3c-1.1-2.4-1.5-5.1-2.3-7.9c-4.5,0.9-7.7,2.7-9.5,6.5c-0.4,0.9-1.2,2.1-2,2.4c-4.4,1.4-7,4.8-9.5,8.4
		c-0.7,1.1-2.2,2-3.5,2.3c-9.8,2.6-14.8,10.8-21.1,17.5c-0.8,0.9-1,2.7-0.8,4c1.8,11.2,5.4,21.7,13.8,29.8c3.1,2.9,3.6,6.1,1.5,8.9
		c-3.1,4.2-1.1,6.7,2,8.8c6.3,4.4,12.8,8.6,19.3,12.7c1.3,0.8,3.3,0.6,5,0.5c3.8-0.1,8.1-1.4,11.4-0.2c7.4,2.5,13.9-1.1,20.8-1.7
		c0.7-0.1,1.7-0.6,2-1.2c0.6-1,1.2-2.5,0.9-3.4c-0.3-0.7-2.1-1.2-3.1-1.1c-5.7,0.8-11.4,2.2-17.1,2.6c-4.3,0.3-8.7-0.2-12.9-0.8
		c-1.4-0.2-2.5-2.1-3.8-3.2c0.3-0.5,0.5-1,0.8-1.5c2.7,0.2,5.4,0.1,8,0.8c8.1,2.1,13.5-1.7,13.6-10c0.1-3.5-1.4-5.1-5-4.8
		C246.6,256.9,244.8,256.6,243,256.5z M326.3,313.7c0.1-0.5,0.1-1,0.2-1.5c-2.1-0.5-4.3-1.3-6.4-1.4c-7.3-0.2-13.5-3.3-20-6.2
		c-5.7-2.5-12.5-2.4-18.9-3.4c-0.1,0-0.3,0.1-0.4,0.2c-3.4,4.1-7.5,4.9-12.3,2.6c-1-0.5-2.6-0.2-3.8,0c-5.8,1.1-11.6,2.6-17.4,3.5
		c-1.7,0.3-3.6-0.9-5.4-1.4c1.4-1,2.7-2.3,4.2-3c2.1-1,4.5-1.5,6.7-2.3c0-0.7-0.1-1.5-0.1-2.2c-3-0.5-6-1.3-9.1-1.4
		c-8.2-0.2-16.5,0.3-24.7-0.1c-12.1-0.6-24.2-1.6-36.1,2.1c-4.3,1.4-4.9,2.8-2.1,6.4c1.6,2.1,3.1,4.4,4.4,6.7
		c1.8,3.1,4.2,3.4,5.6,0.3c1.3-2.9,3.3-3.1,5.9-3c15.4,0.9,30.9,1.8,46.3,2.5c4,0.2,8-0.7,12-0.8c1.6-0.1,3.9-0.3,4.8,0.6
		c4,4.1,8.7,3.7,13.6,3.1c4.5-0.6,10.3,1.7,12-6.3c1.5,1.9,2.6,2.8,2.9,3.9c1,4.1,3.3,4.8,7.2,4.2c2.4-0.4,5.1,0.2,7.6,0.6
		C311.1,319,318.9,317.6,326.3,313.7z M222.5,167.8c0-0.7,0-1.4-0.1-2.1c-2.1-0.2-5.1-1.5-6.2-0.5c-2.9,2.4-5.6,5.5-7.5,8.9
		c-2.8,5.3-3.2,12.3-11,13.4c-1,0.1-2,1-3,1.6c-4.6,2.3-8.9,5.3-13.7,6.8c-10.7,3.4-20.3,8.2-27.4,17c-4.8,5.9-3.8,9.9,3.2,13.1
		c-0.5-2.9,0.5-6.1,3.5-4.7c5.5,2.7,8.9,0.2,12.5-3c3.5-3.2,7.4-4.2,12.1-3.4c1.4,0.2,3.4-0.5,4.6-1.4c7-5.8,13.8-11.8,20.6-17.8
		c1.3-1.1,3.6-2.8,3.3-3.6c-2.1-8.2,3.5-7.2,8.3-7.4c1.7-0.1,3.3-0.5,5-0.8c0.1-0.5,0.2-1,0.3-1.5c-1.6-0.3-3.3-1.2-4.8-1
		c-5.2,0.8-6.3-3.1-7.5-6.5c-1.4-3.8,1.1-4.6,4.3-5C220.2,169.7,221.3,168.5,222.5,167.8z M269.7,148.4c2.1-2.8,3.8-3.7,6.4-1
		c4.2,4.3,8.6,8.3,12.9,12.4c0.2,0.2,0.5,0.2,0.8,0.3c0.7-0.8,1.3-1.6,2-2.3c-7-7.1-14.1-14.2-21-21.4c-1.3-1.3-2-3.1-3.7-5.7
		c-2,1.3-4.9,2.5-6.7,4.7c-3.1,3.6-5.8,7.8-8.3,11.9c-1,1.7-1.5,3.9-1.8,5.9c-1.2,7.1,0.4,14.9-4.7,21.1c-0.9,1.1-1.9,2.3-2.2,3.6
		c-0.2,1,0.2,2.5,1,3.2c0.4,0.5,2.2,0.2,2.9-0.3c1.3-1.1,2.2-2.6,3.9-4.7c1.4,2.7,2,5.3,3.6,6.7c1.8,1.6,4.6,2.2,6.9,3.2
		c0.3-2.1,1.3-4.6,0.6-6.4c-1.2-2.8-0.2-4.1,1.7-5.7c1.5-1.3,3.8-3,3.9-4.6c0.2-3.8,2.3-5.6,5.1-7.6c4.4-3.2,4.3-5.6,0.5-9.4
		C272.1,151.1,271,149.7,269.7,148.4z M277.1,241.8c-1.9,6.5-3.2,12.8,0.7,18.3c2.2,3.1,3.3,5.7,2.4,9.3c-0.2,1,0,2.3,0.5,3.1
		c2.9,4,2.1,7.4-1.1,10.8c-1.7,1.9-3.1,4.2,0,7c1.6-1.7,3-3.4,4.6-4.9c1.8-1.6,3.7-2.9,5.6-4.3c-0.8-2-2-3.9-2.2-5.9
		c-0.6-5.4-1.1-10.8-1-16.3C286.7,251.6,282.9,243.7,277.1,241.8z M202.5,270.7c0.2,1,0.1,1.7,0.4,1.9c5.8,5.5,11.5,11.1,17.4,16.4
		c0.8,0.7,2.9-0.2,4.4-0.4c-0.3-1.3-0.3-3-1.1-3.7c-5.3-4.6-10.8-9-16.4-13.3C206.1,270.8,204.3,271,202.5,270.7z M271.4,131.6
		c-0.1,0.1-0.2,0.2-0.3,0.3c7.1,7.3,14.2,14.5,21.3,21.8c0.1-0.1,0.2-0.2,0.3-0.3C285.6,146.1,278.5,138.8,271.4,131.6z
		 M208.7,359.6c-4.6-4.5-8.5-8.4-12.3-12.2C197.4,353.7,201.4,357.5,208.7,359.6z M197,322.4c3.1,3.6,7.5,8.8,11.9,13.9
		c0.4-0.4,0.8-0.8,1.2-1.2C205.3,330.4,200.5,325.7,197,322.4z M295.3,246.7c-0.2,0.2-0.3,0.3-0.5,0.5c-4.3-4.4-8.6-8.8-13-13.2
		c0,0-0.1,0.1-0.1,0.1C286.2,238.3,290.8,242.5,295.3,246.7z"/>
	<path style="fill-rule:evenodd;clip-rule:evenodd;fill:#FFFFFF;" d="M85.2,101.8c0-14.7,13.4-28.3,27.7-28.3
		c13.8,0,24.9,10.9,25,24.4c0.1,14.3-14,28.6-28.2,28.6C96,126.4,85.2,115.5,85.2,101.8z M106.3,88.4c-5.1,0.1-8,3.6-7,8.7
		c1.4,7,10.4,14.4,17.5,14.5c5.3,0.1,8.4-3.7,7.2-8.9C122.6,95.7,113.3,88.3,106.3,88.4z"/>
	<path style="fill-rule:evenodd;clip-rule:evenodd;fill:#FFFFFF;" d="M179.7,66.2c0.9,2,1.6,3.6,2.4,5.3c1.6-0.4,2.9-0.8,4.6-1.3
		c1.5,3.3,3,6.5,4.7,10.3c-8.6,3.8-17,7.6-25.8,11.5c-1.6-3.6-3.1-6.8-4.7-10.2c1.3-0.9,2.4-1.7,3.8-2.8c-3.2-7.2-6.4-14.4-9.7-21.7
		c-1.6,0.4-3,0.7-4.6,1c-1.5-3.4-2.9-6.6-4.7-10.6c12.7-5.2,24.7-11.2,37.4-15.1c11.4-3.6,20.2,4.4,18.9,15.5
		c-0.7,6-4.9,9.3-9.6,11.9C188.5,62.4,184.3,64,179.7,66.2z M176.8,57.8c3.4-1.7,6.4-2.9,9.1-4.6c2.9-1.8,3.4-4.5,2-7.6
		c-1.3-2.9-3.7-4-6.7-3c-3.2,1-6.2,2.3-9.5,3.6C173.5,50.2,175,53.7,176.8,57.8z"/>
	<path style="fill-rule:evenodd;clip-rule:evenodd;fill:#FFFFFF;" d="M287.9,64.4c-0.6,2.3-0.9,3.9-1.4,5.7c1.4,0.6,2.7,1.1,4.4,1.8
		c-0.7,3.3-1.3,6.7-2.2,11c-9.2-1.9-18.2-3.8-27.8-5.8c0.8-3.8,1.5-7.3,2.3-11c1.5-0.1,2.9-0.2,4.2-0.2c0.2-0.3,0.6-0.5,0.6-0.8
		c1.5-6.4,3.1-12.9,4.2-19.4c0.3-1.5-1.2-3.3-1.9-5c-0.6,0.1-1.1,0.2-1.7,0.3c0.8-3.5,1.5-7.1,2.4-11.3c12.9,3,25.6,5.2,37.8,8.9
		c11.8,3.6,15.6,15.4,8.4,23.6c-4.9,5.6-11.3,5.5-17.9,4.5C295.7,66.3,292,65.3,287.9,64.4z M290.1,55.2c3.5,0.7,6.5,1.7,9.6,2
		c3.5,0.3,5.7-1.6,6.6-5.1c0.8-3.5-1-5.6-4-6.7c-3.1-1.1-6.4-1.6-9.7-2.4C291.7,47.4,291,51.1,290.1,55.2z"/>
	<path style="fill-rule:evenodd;clip-rule:evenodd;fill:#FFFFFF;" d="M333.7,94.9c0.1-13.6,11.1-24.8,24.5-24.9
		c14.4-0.1,29.1,14,29.1,27.7c0,13.5-11.6,25-25.2,24.8C347.6,122.4,333.6,108.8,333.7,94.9z M355.6,108.8
		c8.5,0.1,18.6-11.1,17.6-19.7c-0.6-5.2-4.8-8.1-10-7c-7.4,1.6-14.9,10.3-15.6,17.9C347.2,105.1,350.6,108.8,355.6,108.8z"/>
	<path style="fill-rule:evenodd;clip-rule:evenodd;fill:#FFFFFF;" d="M54.6,128.7c6.3,2.9,12.1,5.6,18.5,8.5
		c-1.3,2.7-2.4,5.3-3.8,8.2c-2.6-1.1-5-2.1-7.7-3.2c-0.7,1.3-1.5,2.6-2.5,4.4c7.1,3.3,13.8,6.6,20.7,9.5c0.9,0.4,2.7-1.2,4.8-2.2
		c2.4,1.1,5.7,2.6,9.4,4.3c-4,8.4-7.7,16.4-11.8,25.2c-2.9-3.9-10.1-1.8-9.4-9.7c-6.7-3.1-13.9-6.5-21.6-10c-0.8,1.8-1.3,3.2-2,4.7
		c2.6,1.4,4.9,2.6,7.4,3.9c-1.2,2.7-2.4,5.1-3.8,8.1c-6.2-2.8-12.1-5.6-18.5-8.5c3.5-7.5,6.8-14.6,10.1-21.7
		C47.7,143.3,51,136.3,54.6,128.7z"/>
	<path style="fill-rule:evenodd;clip-rule:evenodd;fill:#FFFFFF;" d="M420.7,170.9c2.8-1.6,4.8-2.9,7.3-4.3
		c-0.7-1.4-1.4-2.8-2.3-4.6c-7.2,3.9-14,7.7-21.2,11.6c0.4,1.4,0.8,2.7,1.2,4.2c-3.2,1.7-6.3,3.4-9.9,5.4c-4.5-8-8.7-15.6-13-23.2
		c7.4-6,9.1-6.4,12.7-2.8c6.8-3.8,13.7-7.6,20.9-11.6c-0.8-1.6-1.5-2.9-2.3-4.5c-2.6,1.3-5,2.5-7.8,3.9c-1.4-2.6-2.8-5.1-4.3-8
		c6-3.3,11.8-6.5,17.5-9.7c0.6,0.6,1,0.9,1.2,1.3c7.4,13.2,14.8,26.5,22.5,40.3c-5.9,3.3-11.6,6.4-17.8,9.9
		C423.7,176.1,422.3,173.6,420.7,170.9z"/>
	<path style="fill-rule:evenodd;clip-rule:evenodd;fill:#FFFFFF;" d="M384.9,364.6c-1.6-2.1-4.2-4-4.6-6.2c-0.3-1.6,1.9-4.7,3.7-5.4
		c5.5-2.2,5.5,3.9,7.9,6.7c0.7-2.3,1.3-4.1,2.4-7.4c1.9,4.9,3.3,8.5,8.4,6.9c-0.2,0.8-0.2,1.5-0.5,1.7c-3.1,2.1-5.1,4.8-6.8,8.2
		c-0.6,1.3-3.7,2.1-5.4,1.8c-1.4-0.2-2.7-2.3-3.7-3.8c-0.5-0.8-0.3-2.2-0.4-3.3C385.6,364.1,385.3,364.4,384.9,364.6z"/>
	<path style="fill-rule:evenodd;clip-rule:evenodd;fill:#FFFFFF;" d="M309.7,414.9c1.2,4.3,2.3,8.3,3.2,12.4c0,0.2-1.3,0.6-2.4,1.1
		c-2.7-6.3-5.2-12.3-8.2-19.3c7.6-0.6,12.3,5.1,18.7,6.3c-1.2-4.1-2.4-8-3.4-11.8c0-0.2,1.3-0.7,2.5-1.4c2.7,6.3,5.3,12.4,7.9,18.5
		c-0.3,0.5-0.5,1-0.8,1.5c-2.9-1.1-5.9-2-8.7-3.2C315.6,417.9,312.8,416.4,309.7,414.9z"/>
	<path style="fill-rule:evenodd;clip-rule:evenodd;fill:#FFFFFF;" d="M93,373.3c-6,0-11.6-5.4-11.5-11.3c0.1-5.4,5.2-10.4,10.7-10.4
		c5.8,0.1,11,5.3,11.1,11.2C103.4,368.6,98.9,373.2,93,373.3z M92.4,369.2c3.8,0.1,6.6-2.3,6.8-6c0.2-3.7-3.1-7.4-6.7-7.6
		c-3.4-0.1-6.9,3.3-6.9,6.8C85.6,366,88.7,369.1,92.4,369.2z"/>
	<path style="fill-rule:evenodd;clip-rule:evenodd;fill:#FFFFFF;" d="M54,300.4c3.8-1.2,6.8-2.3,9.9-3c0.9-0.2,2,0.8,3,1.3
		c-0.6,0.8-1,2.1-1.8,2.4c-4.6,1.5-9.2,2.8-13.9,4.2c-1.1,0.3-2.1,0.5-4,0.9c0-7.5,6.3-11.3,8.3-18c-3.4,1-6.5,2-9.6,2.7
		c-1,0.2-2.1-0.5-3.2-0.8c0.6-0.9,1-2.4,1.8-2.7c5.6-1.9,11.3-3.5,17.8-5.4C62.1,289.7,56,293.7,54,300.4z"/>
	<path style="fill-rule:evenodd;clip-rule:evenodd;fill:#FFFFFF;" d="M408.5,311.5c0.1-6.1,5.2-11.5,10.8-11.4
		c5.6,0,10.5,4.9,10.5,10.5c0.1,6.3-5.3,11.8-11.1,11.6C412.9,322,408.4,317.2,408.5,311.5z M419.2,317.9c3.6,0,6.8-3.2,6.8-6.8
		c0.1-3.4-3.4-6.8-6.9-6.8c-3.5,0-6.5,3.3-6.6,7C412.5,315.2,415.2,317.9,419.2,317.9z"/>
	<path style="fill-rule:evenodd;clip-rule:evenodd;fill:#FFFFFF;" d="M149.3,419.7c2.8-6.4,5.4-12.2,8.2-18.5
		c5.7,2.6,12.1,3.5,13.9,10.6c1,4.1-0.5,7.7-3.9,10.2C161,426.7,155.5,422.3,149.3,419.7z M154.5,417.8c3.7,1.8,7,4.1,10.2,1.1
		c1.5-1.4,3.2-4.7,2.5-6.1c-1.4-2.8-4.2-4.9-7-7.8C158,410.1,156.3,413.7,154.5,417.8z"/>
	<path style="fill-rule:evenodd;clip-rule:evenodd;fill:#FFFFFF;" d="M231.1,429.3c0.1,6.1-4.4,10.6-10.6,10.6
		c-6.4,0.1-11.1-4.1-11.3-10c-0.2-6.2,4.6-11.1,10.8-11C226.3,419,231.1,423.5,231.1,429.3z M213.4,429.5c0,3.8,2.8,6.5,6.8,6.5
		c4,0,6.8-2.6,6.8-6.5c0-3.8-2.9-6.5-6.8-6.6C216.2,422.9,213.4,425.6,213.4,429.5z"/>
	<path style="fill-rule:evenodd;clip-rule:evenodd;fill:#FFFFFF;" d="M50.8,313.2c6.2-2.8,12.2-5.5,18.5-8.4
		c2.3,6.3,7.4,11.8,2.3,17.9c-2,2.4-6.4,4.5-9.5,4.2C54.6,326.1,53.1,319.3,50.8,313.2z M55.8,315.3c1.2,3.9,2.6,7.4,6.6,7.7
		c2,0.1,4.7-1.3,6.1-2.8c2.8-3.3,0.7-6.5-1.3-10C63.5,311.9,59.8,313.6,55.8,315.3z"/>
	<path style="fill-rule:evenodd;clip-rule:evenodd;fill:#FFFFFF;" d="M184,432.9c1.6-6.6,3-12.8,4.6-19.5c6,1.5,12.7,1.1,15.6,7.9
		c1.8,4.2,1,8.4-2.6,11.4C196,437.5,190.2,434.6,184,432.9z M191.6,418.1c-0.8,4.1-1.7,8.2-2.5,12.2c7.5,1.9,10.6,0.8,11.7-3.7
		C201.8,421.8,199,419.2,191.6,418.1z"/>
	<path style="fill-rule:evenodd;clip-rule:evenodd;fill:#FFFFFF;" d="M111.3,366.3c1.9,2.4,3.3,4.2,4.6,6c2,2.9,2.2,6.7-1,7.9
		c-5.3,1.9-4.8,6-5.6,9.8c-0.2,0.8-0.4,1.5-0.7,2.7c-6.3-3.6,0.5-9.6-3.7-14.1c-1.3,2.2-2.7,4.3-4.2,6.7c-2.1-1.7-3-2.4-4.2-3.4
		C101.3,377.1,105.7,372.3,111.3,366.3z"/>
	<path style="fill-rule:evenodd;clip-rule:evenodd;fill:#FFFFFF;" d="M126.4,393.1c3.3,2.5,5,3.8,6.7,5.1c-4.4,7.7-5,8.1-9.5,6
		c-6.4-3-9.2-8.5-7.2-14c1.8-4.9,7.6-8.2,12.6-6.4c2.8,1.1,5.3,3.4,7.5,5.7c0.8,0.8,0.1,3,0.1,5.6c-2.7-2.9-4.1-4.9-5.9-6.4
		c-3.3-2.5-7.6-1.6-9.7,1.8c-2,3.2-0.9,7.7,2.6,9.6c0.9,0.5,2.1,0.4,3.1,0.5c-0.1-0.9-0.3-1.8-0.4-2.7
		C126.4,396.7,126.4,395.6,126.4,393.1z"/>
	<path style="fill-rule:evenodd;clip-rule:evenodd;fill:#FFFFFF;" d="M270.5,427.5c2.2-0.2,4.4-0.4,6.5-0.6c0.3,0.4,0.6,0.6,0.7,0.9
		c0.3,3.6,3.4,7.9-2.8,9.9c-6.3,2.1-12.3,0.4-14.8-4.5c-2.4-4.7-1.1-11.3,3.6-13.5c2.8-1.4,6.4-1.6,9.7-1.7c1.2,0,2.5,1.9,3.7,3
		c-0.2,0.3-0.5,0.6-0.7,1c-2.5-0.1-5.3-1-7.4-0.2c-2.3,1-5.2,3.4-5.5,5.5c-0.3,2.1,1.8,5.5,3.8,6.8c1.8,1.1,4.9,0,7.4-0.1
		c-0.1-0.5-0.1-1-0.2-1.4c-1.6-1.2-3.2-2.4-4.8-3.6C270,428.5,270.2,428,270.5,427.5z"/>
	<path style="fill-rule:evenodd;clip-rule:evenodd;fill:#FFFFFF;" d="M45,253.3c-0.2-3.2-0.4-6.1-0.6-9.2c-2,0-3.8,0.2-5.5-0.1
		c-1.1-0.2-2-1.3-3-1.9c0.9-0.7,1.8-1.8,2.7-1.9c5.6-0.5,11.3-0.6,16.9-0.9c1,3.2,1,3.2-6.8,4.8c0,2.8,0,5.6,0,9
		c2.2-0.1,4.1-0.5,6-0.2c0.9,0.1,1.7,1.3,2.5,2c-0.7,0.7-1.3,1.9-2.1,1.9c-5.3,0.4-10.7,0.7-16,0.7c-0.8,0-1.5-1.1-2.3-1.7
		c0.7-0.7,1.3-1.9,2.1-2C40.7,253.4,42.5,253.5,45,253.3z"/>
	<path style="fill-rule:evenodd;clip-rule:evenodd;fill:#FFFFFF;" d="M303.2,430.5c-3.3,0.9-3.3,0.9-6.4-6.2
		c-2.7,0.7-5.4,1.4-8.5,2.2c0.6,2.7,1.1,5.2,2,9.4c-2.2-1.4-4.2-1.8-4.5-2.8c-1.7-4.9-3-9.9-4.2-14.9c-0.2-0.9,1.2-2.2,2.5-4.5
		c1.3,4,2.1,6.2,3,9c2.9-0.8,5.8-1.6,8.9-2.4c-0.7-2.7-1.2-5-1.8-7.3c0.3-0.4,0.5-0.8,0.8-1.2c1.2,0.7,3.2,1.2,3.5,2.1
		C300.3,419.3,301.7,424.9,303.2,430.5z"/>
	<path style="fill-rule:evenodd;clip-rule:evenodd;fill:#FFFFFF;" d="M38.5,263.1c6,1.3,12,2.6,17.9,4.1c1.1,0.3,2.3,1.1,2.8,2.1
		c0.3,0.5-0.7,2.1-1.5,2.6c-5.3,3.7-10.7,7.2-16,10.8c-0.4-0.2-0.8-0.5-1.3-0.7c0.6-1.4,0.8-3.3,1.9-4.2c4.3-4,3.6-8-2-10.5
		c-1.2-0.5-2-2.1-2.9-3.2C37.8,263.8,38.1,263.4,38.5,263.1z"/>
	<path style="fill-rule:evenodd;clip-rule:evenodd;fill:#FFFFFF;" d="M327.8,398.7c2,3.3,4,6.6,5.9,9.9c1.7,3,4.1,3.4,6.9,1.7
		c2.7-1.7,3.1-3.9,1.5-6.6c-1.5-2.5-3.2-4.9-4.3-7.5c-0.5-1.3,0-3,0.1-4.5c0.6,0,1.2-0.1,1.8-0.1c2.2,3.7,4.5,7.4,6.4,11.2
		c2.2,4.4,0.6,8.3-3.9,10.9c-4.3,2.5-8.8,1.7-11.4-2.2c-2-2.9-3.8-6-5.4-9.1c-0.5-1,0.3-2.5,0.5-3.8
		C326.6,398.6,327.2,398.6,327.8,398.7z"/>
	<path style="fill-rule:evenodd;clip-rule:evenodd;fill:#FFFFFF;" d="M239.6,420.8c0.2,3.8,0.4,7.7,0.6,11.5
		c0.2,3.3,1.9,4.9,5.4,4.7c3.3-0.2,4.5-2.2,4.5-5.1c0-3.1-0.4-6.1-0.3-9.2c0-0.9,1.3-1.7,2-2.5c0.6,0.8,1.6,1.5,1.7,2.3
		c0.4,3.2,0.7,6.4,0.6,9.6c-0.2,5.5-3.5,8.7-8.9,8.8c-5.4,0.1-8.5-2.7-9-8.5c-0.3-3-0.5-6.1-0.2-9.2c0.1-1.2,1.5-2.2,2.3-3.3
		C238.8,420.3,239.2,420.6,239.6,420.8z"/>
	<path style="fill-rule:evenodd;clip-rule:evenodd;fill:#FFFFFF;" d="M416.8,327.9c6.1,2.1,2.9,5.7,1.8,8.3
		c-2.8,6.2-8.8,8.4-14.4,5.6c-5.5-2.8-7.5-9.4-4.1-14.9c1.6-2.6,3.1-7,8.3-3.8c-3.6,3.7-8.3,7.2-4.6,12.7c1.1,1.7,4.6,3.1,6.6,2.7
		C415.4,337.4,416.2,332.7,416.8,327.9z"/>
	<path style="fill-rule:evenodd;clip-rule:evenodd;fill:#FFFFFF;" d="M143.2,393.4c9.8,4.2,10.7,5.1,8.7,8.6
		c-2.1-1.1-4.2-2.3-6.7-3.6c-0.7,1.2-1.4,2.4-2.2,3.7c2.2,1.4,4,2.6,5.9,3.8c-1.2,3.1-1.2,3.1-7.8-0.1c-0.8,1-1.6,2.1-2.6,3.5
		c1.9,1.2,3.7,2,5.1,3.3c0.7,0.6,0.8,1.9,1.2,2.9c-1,0.1-2.1,0.5-2.9,0.2c-2.1-0.9-4-2.2-5.9-3.3c-0.8-0.5-1.5-1.1-2.6-1.9
		C136.7,404.7,139.9,399.2,143.2,393.4z"/>
	<path style="fill-rule:evenodd;clip-rule:evenodd;fill:#FFFFFF;" d="M438.7,260.4c0.3-2,0.6-4.1,1.1-6.1c0.2-0.6,1.3-1.5,1.8-1.5
		c0.6,0.1,1.5,1.2,1.5,1.8c0,2.7-0.1,5.5-0.7,8.2c-0.2,0.9-1.9,2.3-2.8,2.2c-5.7-0.5-11.4-1.3-17.8-2.1c0.4-3.4,0.6-6.5,1.2-9.6
		c0.1-0.7,1.4-1.2,2.1-1.9c0.4,0.7,1.1,1.5,1.2,2.2c0.2,1.7,0.1,3.5,0.1,5.3c2.7,1.2,4.3,1,4.6-2.4c0.1-1.4,1.3-2.7,2.1-4
		c0.5,1.5,1,3.1,1.6,4.6c0.6,1.4,1.4,2.7,2,4.1C437.4,261,438,260.7,438.7,260.4z"/>
	<path style="fill-rule:evenodd;clip-rule:evenodd;fill:#FFFFFF;" d="M440,242.8c0.2-2.5,0.1-4.2,0.4-5.7c0.2-0.8,1.2-1.4,1.9-2.2
		c0.5,0.8,1.5,1.6,1.6,2.4c0.2,3,0.1,6.1,0.1,9.4c-7.1,0-13.6,0-20,0c-1.6-8.3-1-11.1,3-11.8c0.1,2.4,0.2,4.8,0.4,7.1
		c4.1,1,4.1,1,4.8-6.4c3.3-0.5,3.3-0.5,3.7,6.9C437.1,242.7,438.4,242.7,440,242.8z"/>
	<path style="fill-rule:evenodd;clip-rule:evenodd;fill:#FFFFFF;" d="M366.7,389.2c3.9-1.9,6.1-3,8.3-4.1c-0.2-0.7-0.4-1.4-0.6-2.1
		c-2.4,0.1-4.8,0.2-7.1,0.4c-3.3,0.3-6.5-0.7-6.7-3.9c-0.2-2.3,1.6-5.3,3.4-7.1c2-2.1,4.4-1.1,5.7,2.1c-1,0.2-1.9,0.1-2.4,0.5
		c-1.2,0.9-2.1,2-3.2,3.1c1.3,0.4,2.7,1,4,1c1.9,0.1,4.3-0.9,5.7-0.1c1.9,1.2,4.6,3.9,4.3,5.4c-0.4,2.4-2.8,4.8-5,6.2
		C372.1,391.4,369.6,390,366.7,389.2z"/>
	<path style="fill-rule:evenodd;clip-rule:evenodd;fill:#FFFFFF;" d="M427.3,292.3c2.9,1,5.4,1.8,9.5,3.2c-2.1,1.3-3.5,2.9-4.4,2.6
		c-5.7-1.4-11.4-3.2-16.9-4.9c0.7-7.9,2.1-10.4,5.4-10c1.5,2.5-4,6.6,1.8,8c2.8-1.1,0.5-7.5,6.4-6.2
		C428.5,287.7,428,289.7,427.3,292.3z"/>
	<path style="fill-rule:evenodd;clip-rule:evenodd;fill:#FFFFFF;" d="M426.2,275.5c1.8-2.5,3.2-4.5,4.6-6.5c0.4,2.3,0.8,4.6,1.4,7.6
		c1.8,0.4,4.4,1,7,1.6c0.3,0.4,0.6,0.7,0.9,1.1c-1.2,0.8-2.6,2.5-3.7,2.3c-4.9-0.6-9.8-1.7-14.6-2.9c-1-0.3-2.2-2.1-2.2-3.3
		c0-2,0.6-4.1,1.3-6.1c0.3-0.8,1.3-1.4,2-2.1c0.5,0.9,1.5,1.8,1.5,2.8C424.4,272.2,422,275.3,426.2,275.5z"/>
	<path style="fill-rule:evenodd;clip-rule:evenodd;fill:#FFFFFF;" d="M84.8,335.9c6.5,7.1,7,8.5,4,10.8c-4.9-5.2-4.9-5.2-7.2-3
		c-0.1,2.6,5.3,4.3,0.8,7.8c-1.6-2-3-3.8-4.6-5.8c-1.7,1.1-3.2,2.3-5,3c-1,0.4-2.4,0-3.6-0.1c0.4-1,0.5-2.5,1.3-3
		C75.2,342.2,80,339.1,84.8,335.9z"/>
	<path style="fill-rule:evenodd;clip-rule:evenodd;fill:#FFFFFF;" d="M357.7,382.5c-1.5,1.2-2.9,2.4-4.7,3.9
		c2.7,3.7,5.2,7.2,7.9,10.6c1.7,2.2,1.8,3.7-1.5,4.7c-3.1-4.1-6.3-8.3-9.7-12.8c-1.9,1.1-3.6,2.2-5.4,3.2c-0.5-0.3-0.9-0.5-1.4-0.8
		c0.7-1.3,1-3.3,2.1-3.9c4.1-2.1,6.8-8,12.5-6.6C357.5,381.5,357.6,382,357.7,382.5z"/>
	<path style="fill-rule:evenodd;clip-rule:evenodd;fill:#FFFFFF;" d="M73.2,336.9c-4.6,4.3-5.2,0.4-6.2-1.4c-0.5-1,0.1-2.5,0.2-3.9
		C69.1,333.3,71,334.9,73.2,336.9z"/>
	<path style="fill-rule:evenodd;clip-rule:evenodd;fill:#FFFFFF;" d="M243,256.5c1.8,0.1,3.5,0.4,5.3,0.2c3.6-0.3,5,1.3,5,4.8
		c-0.2,8.3-5.6,12.1-13.6,10c-2.5-0.7-5.3-0.5-8-0.8c-0.3,0.5-0.5,1-0.8,1.5c1.2,1.1,2.4,3,3.8,3.2c4.3,0.7,8.6,1.1,12.9,0.8
		c5.7-0.5,11.4-1.8,17.1-2.6c1-0.1,2.9,0.4,3.1,1.1c0.3,0.9-0.3,2.4-0.9,3.4c-0.3,0.6-1.3,1.1-2,1.2c-6.9,0.6-13.4,4.3-20.8,1.7
		c-3.4-1.2-7.6,0.2-11.4,0.2c-1.7,0-3.7,0.3-5-0.5c-6.6-4-13-8.3-19.3-12.7c-3.1-2.2-5.1-4.7-2-8.8c2.1-2.9,1.6-6-1.5-8.9
		c-8.4-8.1-12-18.6-13.8-29.8c-0.2-1.3,0-3.2,0.8-4c6.3-6.7,11.3-14.9,21.1-17.5c1.3-0.3,2.7-1.2,3.5-2.3c2.5-3.6,5.1-6.9,9.5-8.4
		c0.9-0.3,1.6-1.5,2-2.4c1.8-3.8,5-5.6,9.5-6.5c0.8,2.8,1.2,5.5,2.3,7.9c0.9,2,2.4,4.1,4.2,5.3c0.6,0.4,2.8-1.8,4.4-2.5
		c1.5-0.7,3.1-0.9,4.6-1.4c0.5,1.8,1.9,3.9,1.3,5.2c-2.2,4.8-4.2,10.2-8,13.5c-4.4,3.9-3.5,8.7-4.5,13.2c-0.5,2.3,9.6,9.2,12.1,8.5
		c2.9-0.8,5.8-1.2,6.7,2.4c0.9,3.4-0.8,6.2-4.1,7.2c-5.2,1.6-10.5,2.7-15.8,4c-0.9,0.2-2.1,0-2.8,0.4c-0.9,0.5-1.4,1.5-2.1,2.3
		c0.9,0.5,1.7,1.5,2.6,1.5c3.4,0.1,6.8-0.2,10.2,0c1.2,0.1,2.3,1.2,3.4,1.8c-0.8,1.1-1.4,2.6-2.5,3.1c-2.1,1.1-4.5,1.7-6.8,2.5
		C242.8,255,242.9,255.8,243,256.5z M206.7,207.3c-2.9,3.1-6.8,6.5-9.7,10.6c-2.4,3.5,0,7.6,3.8,9.8c1.8,1,3.4,3.5,3.9,5.7
		c1.5,6,4.5,11,9.6,14.5c1,0.7,3,0.3,4.4-0.1c0.4-0.1,0.8-2,0.5-2.8c-1.3-2.9-2.7-5.7-4.3-8.4c-2.2-3.8-2-7.4,0.5-10.9
		c2.6-3.5,5-0.6,7.6,0.3c1.1,0.4,2.7-0.8,4.1-1.3c-0.9-1.1-1.6-2.2-2.6-3.1c-2.2-1.9-4.7-3.7-6.9-5.6c-1.1-0.9-1.8-2.2-3-3.1
		C212.2,211.1,209.9,209.6,206.7,207.3z"/>
	<path style="fill-rule:evenodd;clip-rule:evenodd;fill:#FFFFFF;" d="M326.3,313.7c-7.4,3.8-15.2,5.3-23.6,3.7
		c-2.5-0.5-5.2-1-7.6-0.6c-3.8,0.7-6.2-0.1-7.2-4.2c-0.2-1.1-1.4-2-2.9-3.9c-1.7,8-7.4,5.6-12,6.3c-4.9,0.7-9.6,1-13.6-3.1
		c-0.9-0.9-3.2-0.7-4.8-0.6c-4,0.2-8,1-12,0.8c-15.5-0.7-30.9-1.6-46.3-2.5c-2.6-0.1-4.5,0.1-5.9,3c-1.4,3.1-3.9,2.8-5.6-0.3
		c-1.3-2.3-2.8-4.6-4.4-6.7c-2.8-3.5-2.2-5,2.1-6.4c11.9-3.8,24-2.7,36.1-2.1c8.2,0.4,16.5-0.1,24.7,0.1c3,0.1,6,0.9,9.1,1.4
		c0.1,0.7,0.1,1.5,0.1,2.2c-2.2,0.7-4.6,1.3-6.7,2.3c-1.5,0.7-2.8,2-4.2,3c1.8,0.5,3.7,1.6,5.4,1.4c5.8-0.9,11.6-2.3,17.4-3.5
		c1.2-0.2,2.8-0.5,3.8,0c4.9,2.3,8.9,1.5,12.3-2.6c0.1-0.1,0.3-0.2,0.4-0.2c6.3,1,13.2,0.8,18.9,3.4c6.5,2.9,12.7,6,20,6.2
		c2.2,0.1,4.3,0.9,6.4,1.4C326.4,312.7,326.3,313.2,326.3,313.7z"/>
	<path style="fill-rule:evenodd;clip-rule:evenodd;fill:#FFFFFF;" d="M222.5,167.8c-1.2,0.7-2.3,1.9-3.6,2.1c-3.2,0.4-5.7,1.3-4.3,5
		c1.3,3.3,2.3,7.3,7.5,6.5c1.5-0.2,3.2,0.6,4.8,1c-0.1,0.5-0.2,1-0.3,1.5c-1.7,0.3-3.3,0.7-5,0.8c-4.8,0.2-10.4-0.8-8.3,7.4
		c0.2,0.9-2.1,2.5-3.3,3.6c-6.8,6-13.6,12-20.6,17.8c-1.2,1-3.1,1.7-4.6,1.4c-4.7-0.8-8.6,0.2-12.1,3.4c-3.6,3.2-7,5.7-12.5,3
		c-3.1-1.5-4.1,1.7-3.5,4.7c-7-3.1-8-7.2-3.2-13.1c7.2-8.8,16.8-13.6,27.4-17c4.8-1.5,9.2-4.5,13.7-6.8c1-0.5,1.9-1.4,3-1.6
		c7.9-1.1,8.2-8.2,11-13.4c1.8-3.4,4.5-6.5,7.5-8.9c1.2-0.9,4.1,0.3,6.2,0.5C222.5,166.4,222.5,167.1,222.5,167.8z"/>
	<path style="fill-rule:evenodd;clip-rule:evenodd;fill:#FFFFFF;" d="M269.7,148.4c1.2,1.4,2.3,2.7,3.5,3.9c3.8,3.8,3.8,6.1-0.5,9.4
		c-2.7,2-4.8,3.8-5.1,7.6c-0.1,1.6-2.4,3.2-3.9,4.6c-1.8,1.6-2.9,2.9-1.7,5.7c0.7,1.7-0.3,4.2-0.6,6.4c-2.3-1-5.1-1.6-6.9-3.2
		c-1.6-1.4-2.2-4-3.6-6.7c-1.7,2.1-2.6,3.7-3.9,4.7c-0.6,0.5-2.4,0.8-2.9,0.3c-0.7-0.7-1.2-2.2-1-3.2c0.3-1.3,1.3-2.5,2.2-3.6
		c5.1-6.3,3.5-14,4.7-21.1c0.3-2,0.8-4.2,1.8-5.9c2.5-4.1,5.2-8.2,8.3-11.9c1.8-2.1,4.7-3.3,6.7-4.7c1.6,2.6,2.4,4.3,3.7,5.7
		c6.9,7.2,14,14.3,21,21.4c-0.6,0.8-1.3,1.5-2,2.3c-0.2-0.1-0.6-0.1-0.8-0.3c-4.3-4.1-8.8-8.1-12.9-12.4
		C273.5,144.6,271.8,145.6,269.7,148.4z M261.4,156.3c-2.2-1-3.6-1.9-3.9-1.7c-1.7,1.4-3.2,3.2-4.7,4.8c0.8,0.5,2,1.7,2.3,1.5
		C257,159.8,258.7,158.4,261.4,156.3z"/>
	<path style="fill-rule:evenodd;clip-rule:evenodd;fill:#FFFFFF;" d="M277.1,241.8c5.8,1.9,9.6,9.8,9.5,17.2
		c-0.1,5.4,0.4,10.9,1,16.3c0.2,2,1.4,3.8,2.2,5.9c-1.8,1.4-3.8,2.7-5.6,4.3c-1.6,1.5-3,3.2-4.6,4.9c-3.1-2.7-1.7-5.1,0-7
		c3.2-3.5,3.9-6.8,1.1-10.8c-0.6-0.8-0.8-2.2-0.5-3.1c0.9-3.6-0.2-6.2-2.4-9.3C273.9,254.6,275.2,248.3,277.1,241.8z"/>
	<path style="fill-rule:evenodd;clip-rule:evenodd;fill:#FFFFFF;" d="M202.5,270.7c1.8,0.3,3.6,0.1,4.7,0.9
		c5.6,4.3,11.1,8.7,16.4,13.3c0.8,0.7,0.8,2.5,1.1,3.7c-1.5,0.2-3.6,1.1-4.4,0.4c-6-5.3-11.7-10.9-17.4-16.4
		C202.6,272.4,202.7,271.8,202.5,270.7z"/>
	<path style="fill-rule:evenodd;clip-rule:evenodd;fill:#FFFFFF;" d="M213.4,352.3c-0.4,3.6-3.2,2-4.2,1.3c-1.9-1.3-3.1-3.5-4.7-5.3
		c-1.2-1.3-2.3-2.7-3.7-3.8c-2.1-1.7-4-3.1-1-5.6C204.4,343.4,208.9,347.9,213.4,352.3z"/>
	<path style="fill-rule:evenodd;clip-rule:evenodd;fill:#FFFFFF;" d="M270,351.6c3,4.3,6,8.6,9.8,14.2c-7.3-3.8-11.5-8.8-15.3-15.1
		c1.4-0.5,2.4-0.9,3.4-1.3c0.4,0.1,0.7,0.2,1.1,0.3l-0.2-0.2c0.4,0.4,0.8,0.8,1.2,1.1l-0.2-0.2C269.9,350.9,269.9,351.2,270,351.6z"
		/>
	<path style="fill-rule:evenodd;clip-rule:evenodd;fill:#FFFFFF;" d="M271.4,131.6c7.1,7.3,14.2,14.5,21.3,21.8
		c-0.1,0.1-0.2,0.2-0.3,0.3c-7.1-7.3-14.2-14.5-21.3-21.8C271.2,131.8,271.3,131.7,271.4,131.6z"/>
	<path style="fill-rule:evenodd;clip-rule:evenodd;fill:#FFFFFF;" d="M208.7,359.6c-7.3-2.1-11.3-5.8-12.3-12.2
		C200.2,351.2,204.1,355,208.7,359.6z"/>
	<path style="fill-rule:evenodd;clip-rule:evenodd;fill:#FFFFFF;" d="M195.1,327.3c-0.5-0.9-1-1.8-1.5-2.7c0.3-0.3,0.6-0.5,0.9-0.8
		c4.6,4.7,9.2,9.4,13.7,14.1c0.2,0.2-0.5,1.1-0.7,1.7C203.4,335.5,199.2,331.4,195.1,327.3z"/>
	<path style="fill-rule:evenodd;clip-rule:evenodd;fill:#FFFFFF;" d="M197,322.4c3.4,3.3,8.3,8,13.1,12.6c-0.4,0.4-0.8,0.8-1.2,1.2
		C204.6,331.2,200.2,326.1,197,322.4z"/>
	<path style="fill-rule:evenodd;clip-rule:evenodd;fill:#FFFFFF;" d="M213.4,352.3c-4.5-4.5-9-8.9-13.6-13.4
		c-0.3-0.7-0.6-1.4-1.1-2.7c5.5,5.2,10.5,9.9,15.5,14.7C214.3,351,213.7,351.9,213.4,352.3z"/>
	<path style="fill-rule:evenodd;clip-rule:evenodd;fill:#FFFFFF;" d="M288.9,143.7c1.7,2,3.4,4.1,5.1,6.1c-0.1,0.1-0.2,0.2-0.3,0.3
		c-6-6.4-12-12.9-18-19.3c-0.3,0.2-0.5,0.4-0.8,0.6c0.9,0.4,1.9,0.7,2.8,1.1C281.4,136.1,285.2,139.9,288.9,143.7z"/>
	<path style="fill-rule:evenodd;clip-rule:evenodd;fill:#FFFFFF;" d="M288.9,143.7c-3.7-3.8-7.5-7.5-11.2-11.3
		c0.4-0.4,1.2-1.1,1.2-1c3.6,3.6,7.2,7.3,10.7,11.1C289.7,142.5,289.1,143.2,288.9,143.7z"/>
	<path style="fill-rule:evenodd;clip-rule:evenodd;fill:#FFFFFF;" d="M195.1,327.3c4.2,4.1,8.3,8.2,12.5,12.3
		c-0.4,0.4-0.8,0.9-1.2,1.3c-3.8-3.6-7.7-7.1-11.4-10.8C194.5,329.8,195,328.3,195.1,327.3z"/>
	<path style="fill-rule:evenodd;clip-rule:evenodd;fill:#FFFFFF;" d="M295.3,246.7c-4.5-4.2-9.1-8.4-13.6-12.5c0,0,0.1-0.1,0.1-0.1
		c4.3,4.4,8.6,8.8,13,13.2C295,247,295.1,246.8,295.3,246.7z"/>
	<path style="fill-rule:evenodd;clip-rule:evenodd;fill:#FFFFFF;" d="M194.2,357.4c0.1-0.6,0.1-1.2,0.2-1.8c2,2.2,4,4.3,6,6.5
		c-0.5,0-0.9,0.1-1.4,0.1l0.1,0.1c-0.4-0.4-0.7-0.7-1.1-1.1l0.1,0.1c-0.4-0.4-0.7-0.7-1.1-1.1l0.1,0.1c-0.4-0.4-0.7-0.7-1.1-1.1
		l0.1,0.1c-0.4-0.4-0.7-0.7-1.1-1.1l0.1,0.1c-0.4-0.4-0.8-0.8-1.1-1.1L194.2,357.4z"/>
	<path style="fill-rule:evenodd;clip-rule:evenodd;fill:#FFFFFF;" d="M266.9,347.7c0-0.6,0-1.2,0-1.8c1.3,0.8,2.8,1.4,3.7,2.5
		c0.5,0.7,0,2.1,0,3.3c-0.3-0.4-0.6-0.7-0.9-1.1l0.2,0.2c-0.4-0.4-0.8-0.8-1.2-1.1l0.2,0.2c-0.4-0.3-0.7-0.6-1.1-1l-0.1-0.1
		C267.5,348.4,267.2,348,266.9,347.7z"/>
	<path style="fill-rule:evenodd;clip-rule:evenodd;fill:#FFFFFF;" d="M272.8,340c0-0.5-0.1-1-0.1-1.4c0-0.3,0.3-0.5,1.8-1.2
		c0.4,1.8,0.8,3.6,1.1,5.4l0.1,0.1c-0.4-0.4-0.7-0.7-1.1-1.1l0.1,0.1c-0.4-0.4-0.7-0.7-1.1-1.1l0.1,0.1c-0.4-0.4-0.7-0.7-1.1-1.1
		L272.8,340z"/>
	<path style="fill-rule:evenodd;clip-rule:evenodd;fill:#FFFFFF;" d="M198.9,362.2c-3.2,0.8-5.5-1.5-4.8-4.8l-0.1-0.1
		c0.4,0.4,0.8,0.8,1.1,1.1l-0.1-0.1c0.4,0.4,0.7,0.7,1.1,1.1l-0.1-0.1c0.4,0.4,0.7,0.7,1.1,1.1l-0.1-0.1c0.4,0.4,0.7,0.7,1.1,1.1
		c0,0-0.1-0.1-0.1-0.1c0.4,0.4,0.7,0.7,1.1,1.1L198.9,362.2z"/>
	<path style="fill-rule:evenodd;clip-rule:evenodd;fill:#FFFFFF;" d="M275.6,342.8c-0.1,0.5-0.3,1.1-0.4,1.6c-1.4-1.3-2.7-2.6-4.1-4
		c0.6-0.2,1.1-0.3,1.7-0.5l-0.1-0.1c0.4,0.4,0.7,0.7,1.1,1.1c0,0-0.1-0.1-0.1-0.1c0.4,0.4,0.7,0.7,1.1,1.1c0,0-0.1-0.1-0.1-0.1
		c0.4,0.4,0.7,0.7,1.1,1.1L275.6,342.8z"/>
	<path style="fill-rule:evenodd;clip-rule:evenodd;" d="M266.9,347.7c0.3,0.3,0.6,0.7,0.8,1C267.5,348.4,267.2,348,266.9,347.7z"/>
	<path style="fill-rule:evenodd;clip-rule:evenodd;" d="M267.9,348.8c0.4,0.3,0.7,0.6,1.1,1c-0.4-0.1-0.7-0.2-1.1-0.3
		C267.9,349.2,267.9,349,267.9,348.8z"/>
	<path style="fill-rule:evenodd;clip-rule:evenodd;" d="M269.8,350.5c0.3,0.4,0.6,0.7,0.9,1.1c-0.2,0-0.4,0-0.6,0
		C269.9,351.2,269.9,350.9,269.8,350.5z"/>
	<path style="fill-rule:evenodd;clip-rule:evenodd;" d="M106.3,88.4c7.1-0.1,16.3,7.3,17.8,14.3c1.1,5.2-1.9,9-7.2,8.9
		c-7.2-0.1-16.2-7.5-17.5-14.5C98.3,92,101.2,88.4,106.3,88.4z"/>
	<path style="fill-rule:evenodd;clip-rule:evenodd;" d="M176.8,57.8c-1.8-4.1-3.4-7.6-5.2-11.5c3.3-1.3,6.4-2.6,9.5-3.6
		c3-0.9,5.4,0.1,6.7,3c1.4,3.1,0.8,5.8-2,7.6C183.2,54.9,180.2,56.1,176.8,57.8z"/>
	<path style="fill-rule:evenodd;clip-rule:evenodd;" d="M290.1,55.2c0.8-4.1,1.6-7.9,2.5-12.1c3.4,0.8,6.6,1.4,9.7,2.4
		c3,1,4.9,3.1,4,6.7c-0.8,3.4-3.1,5.4-6.6,5.1C296.6,56.9,293.6,56,290.1,55.2z"/>
	<path style="fill-rule:evenodd;clip-rule:evenodd;" d="M355.6,108.8c-5,0-8.4-3.8-8-8.8c0.6-7.6,8.1-16.3,15.6-17.9
		c5.2-1.2,9.4,1.8,10,7C374.2,97.7,364.1,108.9,355.6,108.8z"/>
	<path style="fill-rule:evenodd;clip-rule:evenodd;" d="M92.4,369.2c-3.7-0.1-6.8-3.2-6.8-6.8c0-3.5,3.5-6.9,6.9-6.8
		c3.6,0.2,6.9,3.9,6.7,7.6C99,366.8,96.2,369.3,92.4,369.2z"/>
	<path style="fill-rule:evenodd;clip-rule:evenodd;" d="M419.2,317.9c-4,0-6.7-2.7-6.7-6.6c0.1-3.8,3.1-7,6.6-7c3.5,0,7,3.5,6.9,6.8
		C426,314.7,422.8,317.8,419.2,317.9z"/>
	<path style="fill-rule:evenodd;clip-rule:evenodd;" d="M154.5,417.8c1.8-4.1,3.4-7.7,5.7-12.9c2.8,2.9,5.7,5,7,7.8
		c0.7,1.4-1,4.7-2.5,6.1C161.5,421.9,158.2,419.6,154.5,417.8z"/>
	<path style="fill-rule:evenodd;clip-rule:evenodd;" d="M213.4,429.5c0-3.9,2.8-6.6,6.8-6.6c4,0,6.8,2.8,6.8,6.6
		c0,3.9-2.8,6.5-6.8,6.5C216.2,436,213.4,433.3,213.4,429.5z"/>
	<path style="fill-rule:evenodd;clip-rule:evenodd;" d="M55.8,315.3c3.9-1.8,7.6-3.4,11.4-5.1c2,3.4,4.1,6.7,1.3,10
		c-1.4,1.6-4.1,3-6.1,2.8C58.5,322.7,57,319.2,55.8,315.3z"/>
	<path style="fill-rule:evenodd;clip-rule:evenodd;" d="M191.6,418.1c7.5,1.1,10.2,3.8,9.1,8.5c-1,4.5-4.2,5.6-11.7,3.7
		C189.9,426.3,190.7,422.2,191.6,418.1z"/>
	<path style="fill-rule:evenodd;clip-rule:evenodd;" d="M206.7,207.3c3.2,2.3,5.5,3.8,7.8,5.6c1.1,0.9,1.9,2.1,3,3.1
		c2.3,1.9,4.7,3.7,6.9,5.6c1,0.9,1.8,2.1,2.6,3.1c-1.4,0.5-3,1.6-4.1,1.3c-2.6-0.9-5-3.8-7.6-0.3c-2.5,3.4-2.7,7.1-0.5,10.9
		c1.6,2.7,3.1,5.5,4.3,8.4c0.3,0.8-0.1,2.7-0.5,2.8c-1.4,0.4-3.4,0.8-4.4,0.1c-5.1-3.5-8-8.4-9.6-14.5c-0.5-2.1-2.1-4.6-3.9-5.7
		c-3.8-2.1-6.2-6.2-3.8-9.8C199.8,213.8,203.8,210.4,206.7,207.3z"/>
	<path style="fill-rule:evenodd;clip-rule:evenodd;" d="M261.4,156.3c-2.7,2.1-4.4,3.5-6.3,4.6c-0.4,0.2-1.5-0.9-2.3-1.5
		c1.6-1.6,3-3.4,4.7-4.8C257.9,154.4,259.2,155.3,261.4,156.3z"/>
	<path style="fill-rule:evenodd;clip-rule:evenodd;" d="M268.8,349.6c0.4,0.4,0.8,0.8,1.2,1.1C269.6,350.3,269.2,349.9,268.8,349.6z
		"/>
	<path style="fill-rule:evenodd;clip-rule:evenodd;" d="M195.2,358.5c-0.4-0.4-0.8-0.8-1.1-1.1C194.4,357.7,194.8,358.1,195.2,358.5
		z"/>
	<path style="fill-rule:evenodd;clip-rule:evenodd;" d="M196.1,359.4c-0.4-0.4-0.7-0.7-1.1-1.1C195.4,358.7,195.8,359.1,196.1,359.4
		z"/>
	<path style="fill-rule:evenodd;clip-rule:evenodd;" d="M197.1,360.4c-0.4-0.4-0.7-0.7-1.1-1.1C196.3,359.7,196.7,360,197.1,360.4z"
		/>
	<path style="fill-rule:evenodd;clip-rule:evenodd;" d="M198.1,361.4c-0.4-0.4-0.7-0.7-1.1-1.1C197.3,360.6,197.7,361,198.1,361.4z"
		/>
	<path style="fill-rule:evenodd;clip-rule:evenodd;" d="M199,362.4c-0.4-0.4-0.7-0.7-1.1-1.1C198.3,361.6,198.7,362,199,362.4z"/>
	<path style="fill-rule:evenodd;clip-rule:evenodd;" d="M275.8,342.9c-0.4-0.4-0.7-0.7-1.1-1.1C275,342.2,275.4,342.5,275.8,342.9z"
		/>
	<path style="fill-rule:evenodd;clip-rule:evenodd;" d="M273.8,341c-0.4-0.4-0.7-0.7-1.1-1.1C273,340.2,273.4,340.6,273.8,341z"/>
	<path style="fill-rule:evenodd;clip-rule:evenodd;" d="M274.8,341.9c-0.4-0.4-0.7-0.7-1.1-1.1C274,341.2,274.4,341.6,274.8,341.9z"
		/>
</g>
</svg>
